<svg width="108" height="35" viewBox="0 0 108 35" fill="none" xmlns="http://www.w3.org/2000/svg">
<path fill-rule="evenodd" clip-rule="evenodd" d="M4.18809 9.49861H0V5.65967H4.18809V9.49861ZM4.18809 26.9651H0V11.3452H4.18809V26.9651Z" fill="#F3E300"/>
<path fill-rule="evenodd" clip-rule="evenodd" d="M16.3904 26.9651H20.43V5.89404H16.2717V13.3964H16.2123C15.1031 11.7553 13.5784 10.9346 11.6378 10.9346C9.47964 10.9346 7.80615 11.775 6.61835 13.4551C5.5884 14.9402 5.07373 16.7962 5.07373 19.023C5.07373 20.6643 5.32134 22.1005 5.81595 23.3312C6.31158 24.5426 7.1233 25.5291 8.25173 26.2911C9.38056 27.0528 10.618 27.4336 11.9647 27.4336C13.8854 27.4336 15.3412 26.6333 16.3311 25.0312H16.3904V26.9651ZM12.9154 14.4809C15.2717 14.4809 16.4498 16.1612 16.4498 19.5214C16.4498 20.6938 16.1627 21.7098 15.5884 22.5692C14.9151 23.5464 14.014 24.0347 12.8856 24.0347C11.717 24.0347 10.806 23.507 10.1532 22.452C9.61824 21.5729 9.35077 20.5181 9.35077 19.2868C9.35077 16.083 10.5392 14.4809 12.9154 14.4809Z" fill="#F3E300"/>
<path fill-rule="evenodd" clip-rule="evenodd" d="M32.4537 26.9651H36.4935V5.89404H32.335V13.3964H32.2758C31.1664 11.7553 29.6419 10.9346 27.7011 10.9346C25.5431 10.9346 23.8696 11.775 22.6816 13.4551C21.6519 14.9402 21.1372 16.7962 21.1372 19.023C21.1372 20.6643 21.3844 22.1005 21.8794 23.3312C22.3749 24.5426 23.1868 25.5291 24.3148 26.2911C25.444 27.0528 26.6815 27.4336 28.0279 27.4336C29.9486 27.4336 31.4043 26.6333 32.3943 25.0312H32.4537V26.9651ZM28.9789 14.4809C31.3352 14.4809 32.5131 16.1612 32.5131 19.5214C32.5131 20.6938 32.2262 21.7098 31.6519 22.5692C30.9784 23.5464 30.0775 24.0347 28.9491 24.0347C27.7805 24.0347 26.8695 23.507 26.2162 22.452C25.6817 21.5729 25.414 20.5181 25.414 19.2868C25.414 16.083 26.6025 14.4809 28.9789 14.4809Z" fill="#F3E300"/>
<path fill-rule="evenodd" clip-rule="evenodd" d="M47.537 26.9651H51.4281V17.3234C51.4281 13.123 49.1805 11.0031 44.6853 10.9641C43.3783 10.9641 42.1903 11.1595 41.1213 11.5504C39.0818 12.3124 37.9625 13.9439 37.7646 16.4443H41.7447C41.8242 15.741 42.1111 15.1841 42.6065 14.7741C43.1212 14.3635 43.7451 14.1582 44.4772 14.1582C45.131 14.1582 45.715 14.3342 46.2299 14.686C46.745 15.0373 47.0023 15.5263 47.0023 16.1514C47.0023 16.8352 46.1608 17.2846 44.4772 17.4993C42.101 17.7925 40.527 18.1243 39.7547 18.496C38.0715 19.2969 37.2302 20.7622 37.2302 22.8917C37.2302 24.3376 37.7546 25.4509 38.8042 26.2326C39.7547 26.9359 40.9924 27.287 42.5172 27.287C44.636 27.287 46.1804 26.7602 47.151 25.7048C47.2892 26.3305 47.4179 26.7503 47.537 26.9651ZM44.8042 20.1371C45.8538 19.9417 46.5861 19.6777 47.0023 19.3455C47.0023 19.5214 47.0124 19.7754 47.0319 20.1076C47.0515 20.42 47.0617 20.6643 47.0617 20.8402C47.0617 21.8369 46.8538 22.5889 46.438 23.097C46.1014 23.4877 45.6259 23.8098 45.0121 24.0639C44.3983 24.3179 43.8144 24.4447 43.2596 24.4447C42.0122 24.4447 41.3887 23.859 41.3887 22.6864C41.3887 21.7875 41.7549 21.1432 42.4874 20.7524C42.8639 20.5571 43.6357 20.3518 44.8042 20.1371Z" fill="#F3E300"/>
<path fill-rule="evenodd" clip-rule="evenodd" d="M62.472 26.9651H66.3629V17.3234C66.3629 13.123 64.1153 11.0031 59.6203 10.9641C58.3131 10.9641 57.1251 11.1595 56.0561 11.5504C54.0166 12.3124 52.8973 13.9439 52.6994 16.4443H56.6798C56.759 15.741 57.0459 15.1841 57.5413 14.7741C58.056 14.3635 58.6799 14.1582 59.412 14.1582C60.0657 14.1582 60.65 14.3342 61.1649 14.686C61.6798 15.0373 61.9371 15.5263 61.9371 16.1514C61.9371 16.8352 61.0956 17.2846 59.412 17.4993C57.036 17.7925 55.4618 18.1243 54.6896 18.496C53.0063 19.2969 52.165 20.7622 52.165 22.8917C52.165 24.3376 52.6894 25.4509 53.739 26.2326C54.6896 26.9359 55.9272 27.287 57.452 27.287C59.5708 27.287 61.1157 26.7602 62.0858 25.7048C62.224 26.3305 62.3529 26.7503 62.472 26.9651ZM59.7392 20.1371C60.7886 19.9417 61.5209 19.6777 61.9371 19.3455C61.9371 19.5214 61.9472 19.7754 61.9665 20.1076C61.9864 20.42 61.9965 20.6643 61.9965 20.8402C61.9965 21.8369 61.7884 22.5889 61.3728 23.097C61.036 23.4877 60.5607 23.8098 59.9469 24.0639C59.3334 24.3179 58.7494 24.4447 58.1944 24.4447C56.947 24.4447 56.3235 23.859 56.3235 22.6864C56.3235 21.7875 56.6897 21.1432 57.422 20.7524C57.7987 20.5571 58.5707 20.3518 59.7392 20.1371Z" fill="#F3E300"/>
<path d="M91.3666 19.3335L91.287 19.2538C91.2167 19.1711 84.2552 10.9745 83.0401 9.52846C82.2723 8.6158 81.9214 8.35702 80.2319 9.47381C79.5428 9.92937 79.1513 10.4214 79.068 10.9365C78.9616 11.5931 79.3898 12.1297 79.394 12.1351L87.8918 22.1463C88.0107 22.2418 88.4249 22.5549 88.9606 22.7439C89.7053 23.0068 90.3353 22.9176 90.887 22.4701C91.6185 21.8765 91.9936 21.278 92.0015 20.6911C92.012 19.9071 91.3729 19.3391 91.3666 19.3335Z" fill="#F3E300"/>
<path d="M88.7173 10.6475C88.6683 10.6498 88.6541 10.6533 88.6259 10.65C88.6154 10.7074 88.6097 10.8151 88.6367 10.9831C88.7826 11.8968 90.02 15.2825 93.4065 15.1577C94.184 15.1291 94.8984 15.1003 95.541 15.0729C94.6409 13.9923 93.1646 12.2214 91.734 10.5127L88.7173 10.6475Z" fill="#F3E300"/>
<path d="M87.5928 9.6476C87.9259 9.3278 88.3794 9.24012 88.7013 9.26194L90.6137 9.17639C89.3686 7.69346 88.3005 6.43068 87.8868 5.96507C87.4053 5.42319 86.9073 4.86316 85.033 6.16611C83.5072 7.22689 84.0004 8.41996 84.14 8.69013L87.7901 12.9346C87.4714 12.2923 87.2773 11.6749 87.2003 11.1917C87.0929 10.5207 87.225 10.0012 87.5928 9.6476Z" fill="#F3E300"/>
<path d="M93.094 3.14822C91.9893 1.93642 91.7597 1.68344 89.8003 2.92595C89.1999 3.30639 88.854 3.71753 88.7718 4.14798C88.6792 4.63444 88.9515 5.04327 88.9916 5.10043L92.3795 9.09754L98.0014 8.84629C95.9113 6.3943 93.714 3.82818 93.094 3.14822Z" fill="#F3E300"/>
<path d="M101.878 17.0941C102.605 16.5043 102.98 15.9095 102.992 15.3265C103.01 14.5411 102.361 13.96 102.354 13.9542L102.278 13.8773C102.245 13.8381 100.845 12.1874 99.1387 10.1819L93.5117 10.4333L97.3742 14.9905C98.0735 14.9571 98.5677 14.931 98.8017 14.9182C98.8902 14.9078 98.9723 14.9055 99.0455 14.9099C99.4286 14.9329 99.7269 15.2363 99.7261 15.6021" fill="#F3E300"/>
<path d="M93.3461 19.2425C93.3461 19.2425 93.1193 19.1006 93.0294 19.0129L92.8205 18.7845L90.103 15.6245C90.998 16.2145 92.1104 16.5912 93.4624 16.5414C94.7116 16.4955 95.8025 16.4491 96.6837 16.4091C96.875 16.6478 97.1332 17.064 97.1226 17.5636C97.1182 17.7671 97.0667 17.972 96.9745 18.1777C96.8027 18.5612 96.4813 18.9473 96.0082 19.3312C95.4566 19.7786 94.8265 19.868 94.0818 19.6052C93.7945 19.5038 93.5442 19.3673 93.3534 19.2472L93.3461 19.2425Z" fill="#F3E300"/>
<path d="M105.814 15.0705L102.507 11.2215C102.5 11.2138 102.494 11.2059 102.488 11.198C102.485 11.1943 101.975 10.5665 101.244 10.3469C100.707 10.1857 99.7963 10.1621 99.4769 10.1665L88.7173 10.6476C88.6682 10.6497 88.654 10.6534 88.6259 10.6501C88.6153 10.7073 88.6097 10.815 88.6366 10.9832C88.7825 11.8967 90.0199 15.2826 93.4064 15.1578C96.2195 15.0541 98.2433 14.9485 98.8018 14.9181C98.8901 14.9077 98.9722 14.9054 99.0453 14.9098C99.4285 14.9328 99.7268 15.2362 99.726 15.602C99.7258 15.8173 99.6204 16.0087 99.4569 16.1357C99.4502 16.1663 99.4445 16.1968 99.4334 16.2269C99.4159 16.275 98.4054 19.1277 100.064 21.8257C100.275 22.1679 100.154 22.6082 99.7947 22.8089C99.6858 22.8697 99.5673 22.9015 99.4494 22.9068C99.1783 22.9189 98.9096 22.7907 98.7629 22.5522C98.1463 21.549 97.8314 20.5403 97.6916 19.6176C97.2493 20.1274 96.6845 20.5942 96.0765 20.8447C95.426 21.1125 94.4165 21.2079 93.3493 20.7883C93.3298 20.9463 93.3005 21.1071 93.2644 21.2726C92.9501 22.7144 91.5427 23.8411 90.4187 24.0583C88.6194 24.4067 87.0567 23.2625 86.7366 22.9373C86.7074 22.9077 86.6823 22.878 86.6602 22.8482L77.6431 12.3642L70.0754 3.08924C70.0462 3.05332 70.0209 3.01508 69.9996 2.97472C69.9996 2.97472 69.6839 2.4199 69.0548 2.28182C68.9346 2.25556 68.8068 2.24532 68.6724 2.2515C68.1861 2.27313 67.6141 2.50603 66.993 2.93842C66.2385 3.46408 65.8344 4.00538 65.7931 4.54668C65.7416 5.21602 66.268 5.74187 66.2733 5.74709C66.2942 5.76659 66.3138 5.78726 66.3319 5.80889C66.3969 5.88652 72.9114 13.683 80.6114 23.6155C86.7123 31.4851 91.9838 32.0726 95.4155 31.8295C99.8962 31.5122 103.742 29.222 105.966 25.5461C108.44 21.4588 108.391 18.1302 105.814 15.0705Z" fill="#F3E300"/>
</svg>
